<svg xmlns="http://www.w3.org/2000/svg" width="900" height="650" viewBox="0 0 900 650">
<rect width="100%" height="100%" fill="#f8fafc"/>
<rect x="18" y="16" width="360" height="92" fill="#ffffff" stroke="#cbd5e1" stroke-width="1"/>
<text x="36" y="46" font-family="Arial" font-size="22" font-weight="700" fill="#0f172a">Vehicle Routing Baseline</text>
<text x="36" y="72" font-family="Arial" font-size="13" fill="#475569">Routes: 3 | Demand: 93 | Distance: 518.77</text>
<text x="36" y="94" font-family="Arial" font-size="12" fill="#64748b">Nearest-neighbor heuristic with vehicle capacity constraints</text>
<rect x="650" y="24" width="220" height="116" fill="#ffffff" stroke="#cbd5e1" stroke-width="1"/>
<text x="670" y="51" font-family="Arial" font-size="15" font-weight="700" fill="#0f172a">Route Legend</text>
<polyline points="467.7,322.7 387.9,351.2 188.6,319.6 324.2,227.0 185.4,174.6 528.4,201.3 570.5,150.1 642.9,102.3 738.5,50.0 503.6,56.8 467.7,322.7" fill="none" stroke="#2563eb" stroke-width="3" stroke-linejoin="round" stroke-linecap="round" opacity="0.82"/>
<line x1="670" y1="78" x2="696" y2="78" stroke="#2563eb" stroke-width="4" stroke-linecap="round"/>
<text x="706" y="82" font-family="Arial" font-size="12" fill="#334155">Vehicle 1: load 40, dist 209.4</text>
<polyline points="467.7,322.7 602.3,398.6 664.2,412.4 831.2,390.0 850.0,400.4 774.5,600.0 670.6,577.9 605.9,589.6 557.5,585.8 214.7,525.3 467.7,322.7" fill="none" stroke="#dc2626" stroke-width="3" stroke-linejoin="round" stroke-linecap="round" opacity="0.82"/>
<line x1="670" y1="102" x2="696" y2="102" stroke="#dc2626" stroke-width="4" stroke-linecap="round"/>
<text x="706" y="106" font-family="Arial" font-size="12" fill="#334155">Vehicle 2: load 37, dist 185.5</text>
<polyline points="467.7,322.7 50.0,438.9 63.8,549.3 467.7,322.7" fill="none" stroke="#16a34a" stroke-width="3" stroke-linejoin="round" stroke-linecap="round" opacity="0.82"/>
<line x1="670" y1="126" x2="696" y2="126" stroke="#16a34a" stroke-width="4" stroke-linecap="round"/>
<text x="706" y="130" font-family="Arial" font-size="12" fill="#334155">Vehicle 3: load 16, dist 123.9</text>
<rect x="459.7" y="314.7" width="16" height="16" fill="#111827"/>
<text x="479.7" y="312.7" font-family="Arial" font-size="13" font-weight="700" fill="#111827">DEPOT</text>
<circle cx="605.9" cy="589.6" r="5" fill="#ffffff" stroke="#334155" stroke-width="2"/>
<text x="612.9" y="582.6" font-family="Arial" font-size="10" fill="#334155">C001 d=5</text>
<circle cx="214.7" cy="525.3" r="5" fill="#ffffff" stroke="#334155" stroke-width="2"/>
<text x="221.7" y="518.3" font-family="Arial" font-size="10" fill="#334155">C002 d=2</text>
<circle cx="642.9" cy="102.3" r="5" fill="#ffffff" stroke="#334155" stroke-width="2"/>
<text x="649.9" y="95.3" font-family="Arial" font-size="10" fill="#334155">C003 d=2</text>
<circle cx="557.5" cy="585.8" r="5" fill="#ffffff" stroke="#334155" stroke-width="2"/>
<text x="564.5" y="578.8" font-family="Arial" font-size="10" fill="#334155">C004 d=2</text>
<circle cx="188.6" cy="319.6" r="5" fill="#ffffff" stroke="#334155" stroke-width="2"/>
<text x="195.6" y="312.6" font-family="Arial" font-size="10" fill="#334155">C005 d=1</text>
<circle cx="528.4" cy="201.3" r="5" fill="#ffffff" stroke="#334155" stroke-width="2"/>
<text x="535.4" y="194.3" font-family="Arial" font-size="10" fill="#334155">C006 d=9</text>
<circle cx="387.9" cy="351.2" r="5" fill="#ffffff" stroke="#334155" stroke-width="2"/>
<text x="394.9" y="344.2" font-family="Arial" font-size="10" fill="#334155">C007 d=5</text>
<circle cx="774.5" cy="600.0" r="5" fill="#ffffff" stroke="#334155" stroke-width="2"/>
<text x="781.5" y="593.0" font-family="Arial" font-size="10" fill="#334155">C008 d=3</text>
<circle cx="664.2" cy="412.4" r="5" fill="#ffffff" stroke="#334155" stroke-width="2"/>
<text x="671.2" y="405.4" font-family="Arial" font-size="10" fill="#334155">C009 d=3</text>
<circle cx="185.4" cy="174.6" r="5" fill="#ffffff" stroke="#334155" stroke-width="2"/>
<text x="192.4" y="167.6" font-family="Arial" font-size="10" fill="#334155">C010 d=2</text>
<circle cx="63.8" cy="549.3" r="5" fill="#ffffff" stroke="#334155" stroke-width="2"/>
<text x="70.8" y="542.3" font-family="Arial" font-size="10" fill="#334155">C011 d=6</text>
<circle cx="570.5" cy="150.1" r="5" fill="#ffffff" stroke="#334155" stroke-width="2"/>
<text x="577.5" y="143.1" font-family="Arial" font-size="10" fill="#334155">C012 d=8</text>
<circle cx="503.6" cy="56.8" r="5" fill="#ffffff" stroke="#334155" stroke-width="2"/>
<text x="510.6" y="49.8" font-family="Arial" font-size="10" fill="#334155">C013 d=7</text>
<circle cx="50.0" cy="438.9" r="5" fill="#ffffff" stroke="#334155" stroke-width="2"/>
<text x="57.0" y="431.9" font-family="Arial" font-size="10" fill="#334155">C014 d=10</text>
<circle cx="850.0" cy="400.4" r="5" fill="#ffffff" stroke="#334155" stroke-width="2"/>
<text x="857.0" y="393.4" font-family="Arial" font-size="10" fill="#334155">C015 d=4</text>
<circle cx="670.6" cy="577.9" r="5" fill="#ffffff" stroke="#334155" stroke-width="2"/>
<text x="677.6" y="570.9" font-family="Arial" font-size="10" fill="#334155">C016 d=4</text>
<circle cx="738.5" cy="50.0" r="5" fill="#ffffff" stroke="#334155" stroke-width="2"/>
<text x="745.5" y="43.0" font-family="Arial" font-size="10" fill="#334155">C017 d=4</text>
<circle cx="831.2" cy="390.0" r="5" fill="#ffffff" stroke="#334155" stroke-width="2"/>
<text x="838.2" y="383.0" font-family="Arial" font-size="10" fill="#334155">C018 d=8</text>
<circle cx="602.3" cy="398.6" r="5" fill="#ffffff" stroke="#334155" stroke-width="2"/>
<text x="609.3" y="391.6" font-family="Arial" font-size="10" fill="#334155">C019 d=6</text>
<circle cx="324.2" cy="227.0" r="5" fill="#ffffff" stroke="#334155" stroke-width="2"/>
<text x="331.2" y="220.0" font-family="Arial" font-size="10" fill="#334155">C020 d=2</text>
</svg>